<?xml version="1.0" standalone="no"?>
<!DOCTYPE svg PUBLIC "-//W3C//DTD SVG 20010904//EN"
 "http://www.w3.org/TR/2001/REC-SVG-20010904/DTD/svg10.dtd">
<svg version="1.0" xmlns="http://www.w3.org/2000/svg"
 width="1024.000000pt" height="1024.000000pt" viewBox="0 0 1024.000000 1024.000000"
 preserveAspectRatio="xMidYMid meet">
<metadata>
Created by potrace 1.16, written by Peter Selinger 2001-2019
</metadata>
<g transform="translate(0.000000,1024.000000) scale(0.100000,-0.100000)"
fill="#000000" stroke="none">
<path d="M0 5120 l0 -5120 5120 0 5120 0 0 5120 0 5120 -5120 0 -5120 0 0
-5120z m5209 2410 c372 -26 712 -123 1024 -292 831 -449 1344 -1321 1314
-2236 -12 -350 -84 -653 -229 -952 -51 -104 -165 -297 -200 -336 -13 -15 -18
-36 -18 -84 0 -119 -50 -179 -152 -181 -50 0 -55 -3 -88 -43 -47 -57 -225
-204 -358 -294 -203 -139 -535 -285 -772 -341 -489 -114 -1005 -77 -1463 105
-276 110 -625 331 -786 498 -20 21 -45 36 -58 36 -13 0 -23 5 -23 10 0 7 146
10 418 10 312 0 421 3 430 12 19 19 16 251 -4 317 -22 75 -100 153 -173 175
-76 22 -454 23 -527 1 -66 -19 -127 -73 -160 -141 -24 -49 -27 -69 -32 -192
-4 -119 -2 -140 12 -154 20 -20 20 -28 1 -28 -21 0 -35 32 -35 81 0 35 -7 50
-43 93 -102 121 -222 299 -305 456 -236 441 -334 977 -268 1460 71 526 288
963 661 1335 202 201 398 340 649 461 285 137 558 203 931 227 28 2 63 4 79 5
15 1 94 -3 175 -8z"/>
<path d="M5144 6865 c-8 -20 4 -35 27 -35 14 0 19 7 19 25 0 18 -5 25 -20 25
-11 0 -23 -7 -26 -15z"/>
<path d="M4205 6181 c-44 -19 -70 -60 -75 -119 l-5 -57 -165 -5 c-147 -4 -170
-8 -213 -29 -26 -12 -59 -37 -72 -55 -56 -74 -55 -57 -55 -690 0 -383 3 -587
10 -591 6 -3 19 -3 30 0 20 6 20 16 20 421 l0 414 1425 0 1425 0 2 -317 c3
-305 4 -318 22 -321 46 -9 47 2 40 508 l-6 475 -25 53 c-50 105 -118 132 -335
132 l-148 0 0 41 c0 109 -87 175 -174 134 -44 -21 -65 -58 -73 -126 l-6 -49
-728 0 -729 0 0 40 c0 53 -22 104 -53 125 -31 20 -85 28 -112 16z m83 -89 c8
-11 12 -55 12 -136 0 -130 -9 -156 -56 -156 -42 0 -54 34 -54 158 0 106 1 114
24 137 26 26 51 25 74 -3z m1710 0 c8 -11 12 -55 12 -136 0 -130 -9 -156 -56
-156 -42 0 -54 34 -54 158 0 106 1 114 24 137 26 26 51 25 74 -3z"/>
<path d="M3161 5400 c-19 -11 -9 -45 14 -45 13 0 21 8 23 21 3 23 -17 37 -37
24z"/>
<path d="M6007 5143 c-4 -3 -7 -53 -7 -110 l0 -103 124 0 c104 0 125 3 130 16
3 9 6 51 6 94 0 43 -3 85 -6 94 -5 13 -26 16 -123 16 -65 0 -121 -3 -124 -7z"/>
<path d="M5996 4814 c-11 -29 -7 -179 6 -192 7 -7 40 -12 79 -12 l68 0 11 57
c10 44 22 66 56 103 24 26 41 50 37 53 -3 4 -61 7 -129 7 -102 0 -123 -3 -128
-16z"/>
<path d="M6313 4735 c-64 -27 -73 -59 -73 -252 0 -94 3 -178 6 -187 3 -9 14
-16 23 -16 37 0 41 19 41 195 0 120 4 175 12 183 9 9 97 12 333 12 299 0 323
-1 338 -18 15 -16 17 -54 17 -331 0 -279 2 -312 16 -318 9 -3 24 -2 33 4 14 9
16 47 16 331 0 444 32 412 -420 412 -244 -1 -317 -4 -342 -15z"/>
<path d="M3730 4561 c-68 -24 -140 -98 -164 -167 -35 -104 -13 -220 56 -299
73 -83 155 -109 254 -80 81 23 156 98 180 181 65 226 -123 436 -326 365z"/>
<path d="M5077 4514 c-4 -4 -7 -51 -7 -105 0 -79 3 -98 16 -103 23 -9 217 -7
232 2 9 6 12 35 10 108 l-3 99 -121 3 c-66 1 -123 -1 -127 -4z"/>
<path d="M5539 4468 c0 -29 -2 -73 -4 -98 -2 -25 1 -51 7 -57 16 -19 231 -18
247 1 8 9 11 47 9 107 l-3 94 -127 3 -128 3 -1 -53z"/>
<path d="M6450 4505 c-6 -8 -9 -23 -5 -34 5 -17 19 -20 108 -26 56 -4 145 -3
197 2 79 7 95 11 98 26 8 43 -10 47 -203 47 -147 0 -185 -3 -195 -15z"/>
<path d="M5953 4191 c-326 -6 -343 -7 -370 -27 -15 -11 -38 -36 -50 -54 -23
-33 -23 -36 -23 -392 0 -404 1 -408 71 -455 l39 -25 396 1 c435 2 432 2 475
62 30 43 41 193 37 519 -3 276 -9 300 -77 346 -47 31 -73 32 -498 25z m466
-98 c29 -28 30 -29 33 -158 1 -71 2 -230 0 -353 -2 -222 -2 -223 -27 -247
l-24 -25 -386 0 -386 0 -24 25 -25 24 0 354 0 354 26 27 27 26 378 0 379 0 29
-27z"/>
<path d="M6127 3753 l-147 -148 -88 88 c-93 93 -124 106 -130 58 -3 -19 17
-45 99 -127 57 -57 111 -104 120 -104 9 0 88 72 175 161 126 127 159 166 159
187 0 19 -6 28 -20 30 -15 2 -61 -38 -168 -145z"/>
<path d="M6606 4184 c-18 -17 -19 -24 -8 -40 9 -14 162 -25 222 -16 37 6 46
11 48 31 2 13 -2 28 -10 32 -7 5 -63 9 -125 9 -88 0 -115 -3 -127 -16z"/>
<path d="M4614 4147 c-3 -8 -3 -56 -2 -108 l3 -94 126 -3 126 -3 5 98 c3 54 3
104 1 110 -7 19 -252 18 -259 0z"/>
<path d="M5074 4147 c-2 -7 -3 -56 -2 -108 l3 -94 125 0 125 0 0 105 0 105
-123 3 c-96 2 -124 0 -128 -11z"/>
<path d="M7023 3863 c-10 -3 -13 -41 -13 -142 0 -192 13 -181 -204 -181 -185
0 -205 -5 -191 -50 7 -21 17 -22 298 -23 89 0 120 15 149 74 25 48 26 289 2
313 -16 17 -21 18 -41 9z"/>
<path d="M6692 3708 c-7 -7 -12 -19 -12 -28 0 -33 22 -40 130 -40 69 0 110 4
118 12 17 17 15 55 -4 62 -30 11 -219 7 -232 -6z"/>
<path d="M4366 3697 c-10 -7 -16 -22 -14 -33 3 -18 18 -19 535 -22 465 -2 532
0 537 13 8 22 -3 42 -27 49 -12 3 -245 6 -518 6 -394 0 -499 -3 -513 -13z"/>
</g>
</svg>
